<?xml version="1.0" encoding="UTF-8"?>
<svg id="Layer_1" data-name="Layer 1" xmlns="http://www.w3.org/2000/svg" viewBox="0 0 325 136">
  <defs>
    <style>
      .cls-1 {
        fill: #fff;
      }
    </style>
  </defs>
  <g>
    <path class="cls-1" d="M144.89,80.17c-1.13.1-2.21.2-3.27.32-.86-.43-1.72-.86-2.56-1.31-13.51-7.22-26.86-19.56-30.77-35.13-1.12-4.44-1.61-9.81.44-14.02,1.62.67,3.17,1.6,4.88,2.07,6.29,1.75,14.34-.73,20.27-3.07.02-.01.04-.02.08-.03l-2.09,2.5c-3.29,1.63-6.5,3.51-10.08,4.6-.78.23-5.18,1.11-5.37,1.34-.55,4.21.38,8.8,1.78,12.77,4.22,11.96,14.19,21.96,24.52,28.62.72.47,1.44.92,2.18,1.34Z"/>
    <path class="cls-1" d="M204.01,12.04c-9.51-9.92-26.09-12.98-38.4-6.98-2.01.98-4.19,2.41-5.65,4.13.13.21.28-.04.38-.13,6.12-5.3,15.19-6.7,22.98-5.52,21.89,3.33,33.69,27.58,21.67,47.15-3.69,6.01-11.25,13.45-17.43,16.72-1.72.91-3.38,1.72-3.41-1.13-.02-2.33.67-5.55,1.07-7.91,1.06-6.33,2.59-12.6,3.51-18.96.77-5.35,1.96-14.24-2.29-18.34-7.07-6.84-12.56,6.92-14.58,11.91-2.79,6.9-4.8,14.81-7.82,21.46-.26.57-.82,1.95-1.5,2-1.53.1-.85-3.69-.81-4.62.14-4.18.34-8.35.5-12.52.16-4.09,1-10.89-2.16-14.07-3.42-3.44-6.73,1.98-8.46,4.51-2.27,3.32-4.23,6.88-6.39,10.27-.99,1.38-2.59,1.72-2.33-.56.39-3.42,3.09-8.26,3.18-11.48.09-2.98-2.72-2.72-4.72-2.08-2.46.78-4.98,2.16-7.41,3.13l-2.09,2.49c1.21-.6,2.44-1.17,3.7-1.65,1.7-.65,5.35-2.09,5.15,1.09-1.04,6.15-2.89,12.25-3.79,18.41-.34,2.36-1.48,8.47,2.66,7.67,2.21-.43,6.01-5.83,7.44-7.77,1.79-2.44,3.4-5.03,5.2-7.46,1.14-1.53,4.72-6.87,5.08-1.72.15,2.07-.08,4.89-.13,7.05-.11,4.78-1.05,13.54.53,17.82.91,2.46,3.28,3.93,5.58,2.12,2.59-2.03,6.37-13.35,7.88-16.97,2.34-5.61,4.79-12.25,7.77-17.46.55-.95,2.66-4.89,3.9-2.77.74,1.26.16,5.02-.07,6.55-.96,6.43-2.87,12.89-4.25,19.24-1.86,8.52-6.35,25.68,8.94,17.36,9.33-5.08,18.93-15.39,22.91-25.44,4.84-12.21,2.72-26.07-6.35-35.53Z"/>
    <path class="cls-1" d="M253.93,133.59c-1.89-1.65-3.73-3.41-5.84-4.77-6.18-.17-12.36.2-18.55.07v-3.31h21.09c.71,0,1.92-.89,2.07-1.62.43-2.07-1.35-2.95-3.09-3.09-5.78-.48-12.37.24-18.21.14-1.03.17-2.16.69-2.73,1.6-.13.2-.53,1.21-.53,1.38v9.57c0,.17-.14.31-.31.32l-3.06.11c-.18,0-.33-.14-.33-.32v-9.93c.35-3.79,3.02-5.98,6.71-6.29,6.2.5,13.8-.8,19.83.15,4.15.65,7.07,4.5,4.71,8.46-.62,1.04-1.37,1.42-2.32,2.08,1.18.81,2.31,1.93,3.32,2.99.51.54,1.15,1.22,1.66,1.84.14.17.03.42-.19.43l-4.04.28c-.07,0-.14-.02-.19-.06Z"/>
    <path class="cls-1" d="M97.13,133.6v-2.82c0-.2-.16-.35-.35-.35h-24.94c-3.77,0-6.1-4.83-3.43-7.63.85-.9,2.97-1.8,4.19-1.8h24.11c.16,0,.3-.13.3-.3v-2.38c0-.14-.11-.25-.25-.25h-5.19c-1.8,0-3.6,0-5.4,0h-1.87c-3.57,0-7.13,0-10.7,0-1.17,0-2.38-.03-3.56.13-.38.05-.76.12-1.13.22-1.38.37-2.6,1.2-3.51,2.29-1.78,2.14-2.29,5.25-1.32,7.86.69,1.86,2.11,3.25,3.86,4.11,2.47,1.21,5.3,1.29,8,1.25,2.96-.05,5.91-.07,8.87-.07,1.89,0,3.79,0,5.68,0,1.5,0,2.99,0,4.49,0h1.9c.15,0,.26-.12.26-.26Z"/>
    <path class="cls-1" d="M134.04,133.99c-.18,0-.33-.15-.33-.33v-8.66c0-1.82-2.61-4.01-4.4-4.01h-6.31v12.67c0,.09-.03.17-.1.23h0c-.06.06-.14.1-.23.1h-2.92c-.18,0-.33-.15-.33-.33v-12.67h-7.71c-1.5,0-4.01,2.21-4.01,3.76v8.91c0,.18-.15.33-.33.33h-3.03c-.18,0-.33-.15-.32-.33.06-2.37-.11-4.76-.01-7.13.23-5.55,2.31-8.77,8.22-9.11,5.46-.32,11.22.25,16.71,0,4.06,0,8.6,3.07,8.6,7.46v8.79c0,.09-.03.17-.1.23h0c-.06.06-.14.1-.23.1h-3.17Z"/>
    <path class="cls-1" d="M172.17,134c-.24-.02-.43-.21-.45-.46-.06-.85-.06-1.71-.04-2.56.12-4.91.95-9.72-5.53-10.13-3.52-.22-8.59-.21-12.12,0-3.55.21-5.45,1.47-5.67,5.16-.13,2.11-.08,4.79,0,6.92,0,.12.03.23.05.34.07.3-.16.59-.47.6l-2.77.09c-.28,0-.51-.21-.51-.5v-8.98c0-4.34,4.23-6.83,8.09-7.08,4.11-.26,10.04-.25,14.16,0,4.06.24,8.6,3.03,8.6,7.59v8.51c0,.16-.12.29-.28.3l-3.06.19Z"/>
    <path class="cls-1" d="M212.61,133.92c-.63.03-1.16-.47-1.16-1.1v-6.93c0-2.26-1.53-4.43-3.79-4.87-4.63-.02-9.9-.53-14.5-.17-2.17.17-4.77,1.7-4.77,4.15v7.79c0,.59-.47,1.08-1.06,1.1l-1.49.05c-.62.02-1.14-.48-1.14-1.1v-7.97c0-4.7,3.95-7.2,8.21-7.46,4.04-.25,9.72-.23,13.77,0,3.69.21,7.04,1.7,8.15,5.48.5,1.71.3,3.21.31,4.9s0,3.26.06,4.9c.02.6-.44,1.11-1.04,1.14l-1.55.09Z"/>
    <path class="cls-1" d="M120.41,18.82c2.08,2.19,2.16,5.44.17,7.7-3.78,4.29-11.13.91-10.7-4.82s7.17-6.42,10.53-2.89Z"/>
    <path class="cls-1" d="M155.12,6.13c-10.99-4.49-25.01-1.88-32.83,7.42-2.09-.67-4.18-1.4-6.42-1.42,1.91-2.41,4.76-4.43,7.47-5.85,8.83-4.61,20.66-5.55,29.79-1.3.65.3,1.47.68,1.99,1.15Z"/>
    <path class="cls-1" d="M96.5,124.05v3.31h-23.89c-.5,0-1.27-.64-1.4-1.14-.49-1.85,1.62-2.1,2.93-2.18h22.37Z"/>
    <rect class="cls-1" x="190.04" y="127.49" width="19.63" height="3.31"/>
  </g>
  <path class="cls-1" d="M196.02,86.29c0,.86-.86,1.68-2.44,2.43t-.01.01c-5.24,2.5-18.33,4.27-33.66,4.27s-27.12-1.6-32.83-3.92h-.01c-1.51-.72-2.72-1.58-3.2-2.57-.03-.07-.05-.13-.08-.19-1.36-3.41,4.61-4.57,6.81-4.83,1.47-.18,2.95-.19,4.45-.07,6.65.51,13.53,3.54,19.59,5.69.34.12.74.34,1.12.29-4.56-2.61-9.43-4.58-14.14-6.89,1.06-.12,2.14-.22,3.27-.32,4.21,2.52,8.58,4.61,12.9,6.96.34.18,1.39.95,1.6.97.45.04,1.62-.86,2.1-1.11,3.75-1.99,7.62-3.87,11.64-5.2,1.58-.52,3.1-.87,4.65-1.01,1.39-.13,2.79-.01,4.17.18,6.08.87,10.62,2.09,12.74,3.51.86.57,1.32,1.17,1.32,1.8Z"/>
</svg>