<?xml version="1.0" encoding="UTF-8"?>
<svg id="Layer_1" data-name="Layer 1" xmlns="http://www.w3.org/2000/svg" viewBox="0 0 300 196">
  <defs>
    <style>
      .cls-1 {
        fill: #352d74;
      }

      .cls-2 {
        fill: #323c8d;
      }

      .cls-3 {
        fill: #ffed00;
      }
    </style>
  </defs>
  <path class="cls-2" d="M206.04,26.39v81.94h-112.2V26.39h112.2ZM156.02,38.54h-4.44l-1.48-4.67c-.24.02-.24.24-.3.4-.52,1.32-.83,2.91-1.26,4.27h-4.67l3.72,2.9-1.38,4.58,3.82-2.76,3.81,2.92-1.38-4.72,3.56-2.91ZM135.45,41.96h-4.83l3.75,2.91-1.41,4.72,3.95-2.78,3.77,2.78-1.41-4.68,3.82-2.95h-4.83l-1.48-4.52-1.33,4.52ZM164.9,42.59l-1.48-4.67-1.56,4.67h-4.6l3.75,2.91-1.41,4.73,3.82-2.81,3.82,2.81-1.37-4.57,3.71-3.06h-4.67ZM128.9,51.62l-1.25-4.52c-.22.02-.25.23-.32.38-.55,1.2-.82,2.85-1.24,4.13h-4.83l3.82,2.95-1.24,4.52,3.71-2.62,3.68,2.62-1.23-4.57,3.72-2.91h-4.83ZM173.94,52.55c-.45-1.24-.71-2.98-1.24-4.13-.07-.15-.09-.37-.32-.38l-1.25,4.52h-4.83l3.75,2.91-1.33,4.72,3.87-2.79,3.68,2.79-1.37-4.6,3.86-3.03h-4.83ZM122.05,65.64h-4.67l3.66,2.95-1.24,4.52,3.74-2.65,3.66,2.65-1.22-4.56,3.72-2.91h-4.83l-1.33-4.52-1.48,4.52ZM177.84,65.95l-1.48-4.67-1.56,4.67h-4.6l3.72,2.91-1.38,4.72,3.81-2.8,3.82,2.65-1.35-4.44,3.69-3.03h-4.67ZM128.75,79.5l-1.25-4.52c-.22.02-.25.23-.32.38-.55,1.2-.82,2.85-1.24,4.13h-4.83l3.82,2.95-1.33,4.68,3.79-2.78,3.77,2.78-1.33-4.72,3.75-2.91h-4.83ZM174.72,79.66l-1.48-4.67-1.56,4.67h-4.6l3.75,2.91-1.41,4.73,3.81-2.81,3.82,2.81-1.41-4.73,3.75-2.91h-4.67ZM164.9,89.16l-1.25-4.52c-.21.02-.25.22-.32.38-.52,1.23-.74,2.86-1.24,4.14h-4.67c-.09.36.09.26.2.36,1.07.91,2.39,1.67,3.46,2.59l-1.32,4.68,3.68-2.79,3.79,2.63-1.22-4.41,3.72-3.07h-4.83ZM143.24,89.47h-4.6l-1.56-4.67-1.48,4.67h-4.67l3.72,2.9-1.38,4.58,3.82-2.77,3.81,2.93-1.39-4.73,3.72-2.91ZM150.56,89.01c-.4-.06-.24.04-.33.22-.29.65-1.11,4.04-1.38,4.23l-4.68-.08,3.86,3.03-1.52,4.6,3.95-2.79,3.84,2.79-1.52-4.6,3.86-3.03-4.68.08-1.4-4.45Z"/>
  <polygon class="cls-1" points="190.46 122.03 194.66 143.53 198.09 122.03 218.51 122.03 218.51 168.6 204.79 168.6 204.79 137.45 199.25 168.61 189.59 168.46 183.91 138.39 183.76 168.6 170.2 168.6 170.2 122.03 190.46 122.03"/>
  <path class="cls-1" d="M88.39,122.03v36.37c.24,1.18.07,2.93,1.55,3.28,1.07.26,2.25-.01,2.67-1.09.05-.14.31-1.04.31-1.1v-37.46h15.74v32.48c-.34,2.79.13,5.48-1.28,8.06-4.78,8.74-21.63,8.42-29.21,4.03-4.68-2.71-5.17-6.27-5.36-11.31v-33.26h15.59Z"/>
  <path class="cls-1" d="M148.38,131.45c-.12-1.19-.53-2.31-1.83-2.53-3.55-.61-3.02,2.4-3.15,4.72-.4,7.07-.45,15.34-.17,22.43.04,1.03.1,3.1.36,4,.61,2.1,3.65,2.26,4.67.54.17-.29.59-1.47.59-1.75v-8.18h-3.12v-7.17h18.15l.23.23v24.85h-9.97c-.32-.93-.72-2.25-1.21-3.07-.05-.09-.03-.32-.27-.2-.1.05-1.15,1.35-1.48,1.64-4.64,3.98-13.21,2.97-18.07-.17s-5.28-7.1-5.47-12.44c-.19-5.41-.18-11.57,0-16.99.24-7.25.56-11.38,7.74-14.54,7.67-3.37,25.05-2.56,27.87,7.14.6,2.08.79,4.75.86,6.92.02.68.14,1.75-.24,2.27h-15.27l-.23-.23c-.18-2.39.25-5.13,0-7.48Z"/>
  <path class="cls-1" d="M240.48,149.76v18.85h-15.58v-46.58c6.46.22,13.12-.3,19.56,0,8.28.37,13.61,1.81,14.09,10.99.18,3.47.48,11.04-1.96,13.62-3.52,3.73-11.44,3.07-16.12,3.13ZM240.48,141.81h2.57c.96,0,1.92-.98,2.18-1.87.39-1.29.38-5.93.19-7.36-.37-2.74-2.7-2.62-4.95-2.61v11.84Z"/>
  <polygon class="cls-1" points="67.35 122.03 67.35 131.22 57.14 131.22 56.91 131.45 56.91 140.1 66.73 140.1 66.73 148.98 56.91 148.98 56.91 159.26 68.44 159.26 68.44 168.6 41.33 168.6 41.33 122.03 67.35 122.03"/>
  <path class="cls-3" d="M173.94,52.55h4.83l-3.86,3.03,1.37,4.6-3.68-2.79-3.87,2.79,1.33-4.72-3.75-2.91h4.83l1.25-4.52c.22.02.24.23.32.38.53,1.16.79,2.9,1.24,4.13Z"/>
  <path class="cls-3" d="M164.9,89.16h4.83l-3.72,3.07,1.22,4.41-3.79-2.63-3.68,2.79,1.32-4.68c-1.07-.93-2.4-1.68-3.46-2.59-.11-.1-.29,0-.2-.36h4.67c.5-1.27.72-2.9,1.24-4.14.07-.16.1-.36.32-.38l1.25,4.52Z"/>
  <path class="cls-3" d="M128.75,79.5h4.83l-3.75,2.91,1.33,4.72-3.77-2.78-3.79,2.78,1.33-4.68-3.82-2.95h4.83c.42-1.28.69-2.93,1.24-4.13.07-.15.1-.37.32-.38l1.25,4.52Z"/>
  <polygon class="cls-3" points="135.45 41.96 136.78 37.44 138.25 41.96 143.09 41.96 139.26 44.91 140.67 49.6 136.9 46.82 132.96 49.59 134.37 44.88 130.62 41.96 135.45 41.96"/>
  <polygon class="cls-3" points="164.9 42.59 169.58 42.59 165.87 45.64 167.24 50.22 163.42 47.41 159.61 50.22 161.02 45.49 157.27 42.59 161.86 42.59 163.42 37.91 164.9 42.59"/>
  <path class="cls-3" d="M128.9,51.62h4.83l-3.72,2.91,1.23,4.57-3.68-2.62-3.71,2.62,1.24-4.52-3.82-2.95h4.83c.42-1.28.69-2.93,1.24-4.13.07-.15.1-.37.32-.38l1.25,4.52Z"/>
  <polygon class="cls-3" points="174.72 79.66 179.39 79.66 175.64 82.56 177.05 87.29 173.24 84.49 169.42 87.29 170.84 82.56 167.08 79.66 171.68 79.66 173.24 74.98 174.72 79.66"/>
  <path class="cls-3" d="M150.56,89.01l1.4,4.45,4.68-.08-3.86,3.03,1.52,4.6-3.84-2.79-3.95,2.79,1.52-4.6-3.86-3.03,4.68.08c.28-.18,1.09-3.58,1.38-4.23.08-.18-.07-.28.33-.22Z"/>
  <polygon class="cls-3" points="177.84 65.95 182.51 65.95 178.82 68.99 180.17 73.43 176.35 70.78 172.54 73.58 173.92 68.86 170.2 65.95 174.8 65.95 176.36 61.28 177.84 65.95"/>
  <polygon class="cls-3" points="122.05 65.64 123.53 61.12 124.85 65.64 129.68 65.64 125.96 68.55 127.19 73.12 123.53 70.47 119.79 73.12 121.04 68.59 117.37 65.64 122.05 65.64"/>
  <polygon class="cls-3" points="143.24 89.47 139.52 92.38 140.9 97.11 137.09 94.18 133.27 96.95 134.65 92.37 130.93 89.47 135.61 89.47 137.09 84.8 138.64 89.47 143.24 89.47"/>
  <path class="cls-3" d="M156.02,38.54l-3.56,2.91,1.38,4.72-3.81-2.92-3.82,2.76,1.38-4.58-3.72-2.9h4.67c.42-1.37.74-2.95,1.26-4.27.06-.16.06-.38.3-.4l1.48,4.67h4.44Z"/>
</svg>