<?xml version="1.0" encoding="UTF-8"?>
<svg id="Layer_2" data-name="Layer 2" xmlns="http://www.w3.org/2000/svg" viewBox="0 0 178.03 120.63">
  <defs>
    <style>
      .cls-1 {
        fill: #c9312e;
      }

      .cls-2 {
        fill: #fff;
      }

      .cls-3 {
        fill: #d03435;
      }

      .cls-4 {
        fill: #333163;
      }
    </style>
  </defs>
  <g id="Layer_1-2" data-name="Layer 1">
    <g>
      <path class="cls-3" d="M64.22,24.16c-5.42,2.09-12.77,4.3-18.52,2.74-1.56-.42-2.97-1.25-4.46-1.85-1.87,3.76-1.42,8.56-.4,12.53,3.57,13.91,15.78,24.94,28.12,31.39,5,2.61,10.33,4.59,15.26,7.33-.34.04-.71-.15-1.02-.26-6.79-2.36-14.7-5.88-21.96-5.02-2.05.24-7.67,1.32-6.15,4.49,1.24,2.61,8.27,4.09,10.95,4.54,9.38,1.59,20.4,1.6,29.89,1.19,5.6-.24,17.6-.59,22.27-3.35,1.4-.83,2.87-2.39,1.74-4.05-1.23-1.81-6.51-2.45-8.57-2.89-1.64-.35-3.25-1.02-4.94-1.11-4.1-.23-13.11,4.13-16.95,6.12-.43.22-1.5,1.03-1.91.99-.2-.02-1.16-.72-1.46-.88-4.64-2.45-9.32-4.6-13.78-7.41-9.44-5.95-18.56-14.88-22.41-25.57-1.28-3.55-2.14-7.65-1.63-11.41.17-.21,4.2-.99,4.91-1.2,3.26-.97,6.2-2.65,9.2-4.11l1.91-2.23s-.05.02-.07.03Z"/>
      <path class="cls-4" d="M128.32,8.98C119.63.11,104.47-2.62,93.22,2.74c-1.84.88-3.83,2.16-5.16,3.69.12.19.26-.04.35-.12,5.59-4.74,13.88-5.99,21-4.93,20,2.97,30.79,24.65,19.81,42.13-3.37,5.37-10.28,12.02-15.92,14.94-1.57.81-3.09,1.54-3.12-1.01-.02-2.08.62-4.96.98-7.07.97-5.66,2.37-11.26,3.2-16.94.7-4.78,1.79-12.72-2.09-16.39-6.46-6.11-11.47,6.18-13.32,10.65-2.55,6.17-4.39,13.23-7.14,19.18-.23.51-.75,1.74-1.37,1.78-1.39.09-.77-3.29-.74-4.13.13-3.74.31-7.46.46-11.19.15-3.66.91-9.73-1.98-12.57-3.13-3.08-6.15,1.77-7.73,4.03-2.08,2.97-3.86,6.15-5.84,9.18-.91,1.24-2.37,1.54-2.13-.5.35-3.06,2.82-7.38,2.91-10.26.08-2.66-2.49-2.43-4.31-1.86-2.25.7-4.55,1.93-6.78,2.79l-1.91,2.23c1.11-.54,2.23-1.05,3.38-1.47,1.55-.58,4.89-1.87,4.7.98-.95,5.49-2.64,10.95-3.46,16.45-.31,2.11-1.35,7.57,2.43,6.86,2.02-.38,5.49-5.21,6.8-6.95,1.64-2.18,3.1-4.49,4.75-6.66,1.04-1.37,4.31-6.14,4.64-1.54.13,1.85-.07,4.37-.12,6.3-.1,4.27-.96,12.1.49,15.92.83,2.2,3,3.51,5.1,1.89,2.36-1.82,5.82-11.93,7.2-15.16,2.14-5.02,4.38-10.94,7.1-15.6.5-.85,2.43-4.37,3.56-2.47.68,1.13.14,4.48-.07,5.85-.88,5.74-2.62,11.52-3.88,17.19-1.7,7.62-5.8,22.95,8.17,15.51,8.53-4.54,17.3-13.75,20.94-22.73,4.42-10.91,2.48-23.29-5.8-31.75Z"/>
      <path class="cls-2" d="M173.94,120.26c-1.72-1.51-3.41-3.11-5.33-4.36-5.65-.16-11.29.18-16.95.06v-3.03h19.27c.64,0,1.75-.81,1.89-1.48.39-1.89-1.23-2.69-2.83-2.83-5.28-.44-11.31.22-16.64.13-.94.16-1.97.63-2.5,1.46-.12.19-.48,1.1-.48,1.26v8.74c0,.16-.12.29-.28.29l-2.8.1c-.16,0-.3-.13-.3-.29v-9.07c.32-3.46,2.76-5.47,6.13-5.75,5.67.46,12.61-.73,18.12.13,3.79.59,6.46,4.11,4.3,7.74-.56.95-1.25,1.3-2.12,1.9,1.08.74,2.11,1.77,3.03,2.74.46.49,1.05,1.11,1.52,1.68.12.15.03.38-.17.39l-3.69.25c-.06,0-.13-.02-.18-.06Z"/>
      <path class="cls-2" d="M30.65,120.26v-2.58c0-.18-.14-.32-.32-.32H7.53c-3.44,0-5.57-4.42-3.13-6.98.78-.82,2.72-1.64,3.83-1.64h22.03c.15,0,.27-.12.27-.27v-2.17c0-.13-.1-.23-.23-.23h-4.74c-1.65,0-3.29,0-4.94,0h-1.71c-3.26,0-6.52,0-9.78,0-1.07,0-2.18-.03-3.26.12-.35.05-.69.11-1.03.21-1.26.34-2.38,1.1-3.21,2.1-1.63,1.96-2.09,4.8-1.21,7.19.63,1.7,1.92,2.97,3.53,3.75,2.26,1.1,4.85,1.18,7.31,1.14,2.7-.04,5.4-.06,8.1-.06,1.73,0,3.46,0,5.19,0,1.37,0,2.73,0,4.1,0h1.73c.13,0,.24-.11.24-.24Z"/>
      <path class="cls-2" d="M64.37,120.62c-.16,0-.3-.13-.3-.3v-7.91c0-1.66-2.38-3.67-4.02-3.67h-5.76v11.58c0,.08-.03.15-.09.21h0c-.06.06-.13.09-.21.09h-2.66c-.16,0-.3-.13-.3-.3v-11.58h-7.05c-1.37,0-3.67,2.02-3.67,3.44v8.14c0,.16-.13.3-.3.3h-2.77c-.17,0-.3-.14-.3-.31.05-2.16-.1-4.35-.01-6.51.21-5.08,2.11-8.02,7.51-8.33,4.99-.29,10.25.23,15.27,0,3.71,0,7.86,2.8,7.86,6.82v8.03c0,.08-.03.15-.09.21h0c-.06.06-.13.09-.21.09h-2.9Z"/>
      <path class="cls-2" d="M99.22,120.63c-.22-.02-.4-.2-.41-.42-.05-.77-.05-1.56-.03-2.34.11-4.49.87-8.88-5.06-9.26-3.22-.21-7.85-.19-11.07,0-3.24.19-4.98,1.34-5.18,4.72-.12,1.93-.07,4.38,0,6.32,0,.11.03.21.05.31.06.28-.14.54-.43.55l-2.53.08c-.26,0-.47-.2-.47-.45v-8.21c0-3.97,3.87-6.24,7.39-6.47,3.75-.24,9.18-.22,12.94,0,3.71.22,7.86,2.77,7.86,6.93v7.78c0,.14-.11.26-.26.27l-2.8.17Z"/>
      <path class="cls-2" d="M136.18,120.56c-.58.03-1.06-.43-1.06-1.01v-6.33c0-2.07-1.4-4.05-3.47-4.45-4.23-.02-9.04-.48-13.25-.15-1.98.16-4.36,1.55-4.36,3.79v7.12c0,.54-.43.99-.97,1.01l-1.36.05c-.57.02-1.04-.44-1.04-1.01v-7.28c0-4.3,3.61-6.58,7.51-6.82,3.69-.23,8.88-.21,12.59,0,3.37.19,6.44,1.56,7.45,5.01.46,1.56.28,2.93.28,4.48s0,2.98.06,4.47c.02.55-.4,1.01-.95,1.04l-1.42.08Z"/>
      <path class="cls-1" d="M51.92,15.03c1.9,1.95,1.98,4.86.15,6.88-3.45,3.83-10.17.81-9.78-4.3.38-4.91,6.56-5.73,9.62-2.58Z"/>
      <path class="cls-1" d="M83.64,3.69c-10.04-4.01-22.86-1.68-30.01,6.63-1.91-.59-3.82-1.25-5.86-1.27,1.74-2.15,4.35-3.96,6.83-5.22,8.07-4.12,18.88-4.96,27.22-1.16.6.27,1.34.61,1.82,1.03Z"/>
      <path class="cls-2" d="M30.07,111.53v3.03H8.23c-.46,0-1.16-.59-1.28-1.04-.44-1.69,1.48-1.92,2.68-1.99h20.44Z"/>
      <rect class="cls-2" x="115.55" y="114.68" width="17.93" height="3.03"/>
    </g>
  </g>
</svg>