<?xml version="1.0" encoding="UTF-8"?>
<svg id="Layer_1" data-name="Layer 1" xmlns="http://www.w3.org/2000/svg" viewBox="0 0 145.58 145.05">
  <defs>
    <style>
      .cls-1 {
        fill: #fff;
      }

      .cls-2 {
        fill: #009540;
      }
    </style>
  </defs>
  <path class="cls-1" d="M0,72.36C.21,32.16,33.04-.26,73.22,0c40.28.2,72.63,33,72.36,73.22-.17,40.19-32.98,72.57-73.17,72.41C32.14,145.38-.25,112.55,0,72.36"/>
  <path class="cls-2" d="M116.49,71.08c-.21,24.51-20.13,44.3-44.64,44.12-24.54-.11-44.32-20.13-44.2-44.68.16-24.55,20.18-44.31,44.68-44.18,24.56.14,44.32,20.19,44.16,44.74"/>
  <polygon class="cls-2" points="16.78 72.72 18.01 75.13 20.75 75.6 18.68 77.49 19.15 80.18 16.77 78.88 14.32 80.18 14.84 77.43 12.84 75.51 15.55 75.12 16.78 72.72"/>
  <path class="cls-2" d="M4.38,72.42h1.52C6.06,35.59,36,5.84,72.8,5.84h.41c36.77.22,66.52,30.16,66.52,66.92v.41h0c-.2,36.82-30.07,66.56-66.86,66.56h-.45c-36.82-.27-66.52-30.07-66.52-66.79v-.51h0s-1.52-.02-1.52-.02l-1.52-.02v.54c0,38.4,31.05,69.54,69.54,69.82h.47c38.46,0,69.68-31.09,69.9-69.58h0v-.41c0-38.44-31.1-69.72-69.54-69.96h-.43C34.32,2.81,3.04,33.9,2.86,72.41h0s1.52,0,1.52,0Z"/>
  <path class="cls-2" d="M22.8,60.61l.06,1.85c-.07.84-.36,1.45-.77,2l-1.43,1.42c-.55.34-1.13.57-1.86.67h-2.02c-.8-.09-1.41-.33-2.13-.67l-1.6-1.24-.99-1.76c-.22-.68-.25-1.39-.14-2.27l.49-1.58.87-1.24,1.23-.77,1.67-.25-.23,1.34-1.08.2-.88.53-.6.94-.26,1.02.12,1.73.77,1.23,1.35.9,1.57.46,1.59.02,1.43-.45,1.21-.94.56-1.51-.02-1.46-.54-1.2-1.03-.8-1.3-.4-.54,3.31-1.17-.19.76-4.59,5.52.89-.13.91-1.38.12.89,1.78Z"/>
  <path class="cls-2" d="M19.15,53.59l-.95-1.14-.33-1.4.31-1.56.91-1.39,1.16-.82,1.49-.16,1.55.37,1.35.78.93,1.11.34,1.42-.29,1.63-.88,1.35-1.2.78-1.48.21-1.54-.37-1.38-.82ZM22.26,53.45l1.03-.15.77-.51.56-.81.16-.92-.23-.9-.72-.79-1.03-.63-1.23-.31-1.03.16-.84.46-.5.8-.1.95.18.92.66.81,1.06.64,1.26.28Z"/>
  <path class="cls-2" d="M23.12,44.39l-.7-1.27-.16-1.44.6-1.53,1.15-1.22,1.34-.53,1.44.07,1.49.63,1.16,1.05.75,1.28.07,1.42-.59,1.55-1.06,1.22-1.37.51-1.47-.06-1.46-.65-1.18-1.02ZM26.19,44.81l1.02.04.89-.38.69-.66.24-.88-.02-.99-.49-.89-.96-.84-1.14-.45-1.06-.06-.84.37-.68.66-.31.9.03.88.51.94.96.83,1.17.52Z"/>
  <path class="cls-2" d="M36.45,35.42l-.73-.71v1.41l-.75,1.24-1.29.92-1.38.23-1.38-.41-1.28-.88-1.04-1.11-.45-1.39.12-1.4.73-1.34.51-.39.58-.45.71-.19h.8v-.05l-2.89-2.61.84-.95,7.8,7.15-.9.93ZM31.45,36.94l.96.27.97-.15.91-.63.5-.92v-.97l-.39-.96-.63-.74-.89-.66-.98-.3-.99.1-.98.61-.52.99v1.03l.42.9.74.78.88.65Z"/>
  <polygon class="cls-2" points="39.4 19.53 46.68 25.61 45.22 16.25 46.9 15.26 52.1 24.5 50.93 25.16 46.58 17.46 46.58 17.51 48.01 26.79 46.99 27.41 39.75 21.37 44.04 29.04 42.9 29.71 37.7 20.51 39.4 19.53"/>
  <path class="cls-2" d="M60.53,22.15l-.85-.08-.52-.78-.94,1.19-1.31.68-.97.21-.88-.14-.7-.49-.47-.89-.12-1.1.41-.81.63-.61.87-.51.88-.41.83-.41.45-.38.02-.62-.35-.57-.48-.25h-.6l-.58.1-1.2.66-.22,1.26-1.2.38-.09-1.24.48-.96.84-.7,1.15-.51,1.03-.21h.97l.82.45.53.96,1.13,3.83.27.56.37.07.33-.12.31.91-.81.5ZM57.73,18.91l-.72.3-.84.39-.67.44-.36.56v.77l.27.48.41.24.52.06.52-.09.96-.49.56-.62.23-.66-.06-.63-.34-1.2-.49.43Z"/>
  <path class="cls-2" d="M63.24,13.66l.16,1.15c.47-.99,1.24-1.53,2.32-1.69l1.31.11.86.49.56.77.24,1.2.62,4.98-1.26.14-.62-5.12-.53-1.12-1.18-.27-.99.27-.65.59-.34.82v.99l.49,4.31-1.22.1-.95-7.63,1.19-.09Z"/>
  <polygon class="cls-2" points="76.91 20.86 77.02 19.67 76.95 19.67 75.87 20.67 74.4 20.86 73.14 20.63 72.42 19.99 71.97 19.09 71.89 17.94 72.24 12.92 73.46 13.02 73.18 18.17 73.5 19.34 74.64 19.79 75.64 19.67 76.35 19.21 76.84 18.48 77.02 17.54 77.31 13.23 78.55 13.27 78.1 20.96 76.91 20.86"/>
  <polygon class="cls-2" points="80.72 14.75 80.98 13.66 82.25 13.82 82.45 12.8 83.27 11.51 84.89 11.32 85.32 11.4 85.69 11.6 85.47 12.66 85.14 12.55 84.78 12.43 84.03 12.47 83.67 13.09 83.5 14.14 84.94 14.43 84.77 15.44 83.27 15.25 82.04 21.71 80.83 21.44 82.04 14.98 80.72 14.75"/>
  <path class="cls-2" d="M90.61,24.31l-.63-.49v-.97l-1.4.49-1.52-.25-.94-.38-.6-.62-.31-.8.14-.99.53-.96.78-.43.88-.12.99.09.97.16.85.16.61-.12.38-.45.03-.67-.2-.48-.5-.34-.56-.27-1.36-.11-.88.88-1.23-.38.67-1.02.9-.53,1.11-.08,1.21.19.95.44.76.58.42.81-.08,1.12-1.24,3.72-.16.61.25.35.42.09-.36.88-.92-.09ZM90.19,20.13l-.84-.17-.81-.17h-.8s-.67.2-.67.2l-.4.68-.05.49.17.42.39.34.52.26,1.06.17.83-.17.59-.39.27-.51.37-1.23-.65.09Z"/>
  <path class="cls-2" d="M100.03,21.73l-.9-.98-1.17-.25-.95.23-.82.63-.59.92-.37.93-.07.99.24.91.8.74,1.58.19,1.2-.89,1.17.59c-.63.81-1.28,1.3-2,1.44-.77.23-1.57.09-2.44-.4l-1.23-.92-.63-1.3v-1.41l.57-1.51.93-1.28,1.24-.87,1.36-.29,1.57.52,1.06.77.61.87.34,1.06-.34,1.24-1.16-.58v-1.35Z"/>
  <polygon class="cls-2" points="107.42 25.04 106.72 25.92 105.54 25.04 102.76 28.92 102.55 29.21 102.55 29.47 102.76 29.71 103.12 30.07 103.58 30.33 102.9 31.28 102.14 30.72 101.52 30.15 101.18 29.59 101.18 28.99 101.65 28.29 104.49 24.31 103.44 23.53 104.12 22.6 105.17 23.41 106.49 21.54 107.55 22.29 106.18 24.1 107.42 25.04"/>
  <polygon class="cls-2" points="108.02 35.89 108.91 34.99 108.9 34.95 107.43 35.02 106.15 34.23 105.37 33.26 105.17 32.3 105.49 31.33 106.15 30.42 109.66 26.79 110.52 27.66 106.96 31.36 106.48 32.48 107 33.57 107.85 34.15 108.74 34.31 109.57 34 110.33 33.45 113.36 30.29 114.23 31.13 108.91 36.71 108.02 35.89"/>
  <path class="cls-2" d="M117.19,34.64l-1.31,1.02v.06c.74-.2,1.31-.2,1.8,0l1.37,1.05-1.02.86-.99-.88-.99-.33-1.06.28-1.13.65-2.71,2.16-.75-1.01,6.05-4.76.75.89Z"/>
  <path class="cls-2" d="M120.73,39.62l-6.49,4.22-.6-1.08,6.36-4.24.73,1.1ZM121.19,37.76l1.24-.83.69,1.07-1.25.85-.68-1.1Z"/>
  <path class="cls-2" d="M123,43.44l-1.12.52.08.03c1.04.03,1.82.56,2.3,1.61l.37,1.19-.16,1-.55.79-1.01.6-4.5,2.25-.57-1.14,4.63-2.3.88-.88-.13-1.21-.66-.85-.77-.36-.86-.05-.93.3-3.86,1.92-.59-1.11,6.88-3.41.57,1.11Z"/>
  <path class="cls-2" d="M118.83,59.87c-.75-.38-1.31-1.16-1.63-2.32l-.17-1.12.1-1.04.4-.92.9-.63.41,1.27-.5.31-.25.6-.04.63.14.63.52.95.72.52.96.16,1.18-.2.47-.19-1.28-.64-.72-1.28-.1-1.5.57-1.28.96-.93,1.36-.63,1.44-.23,1.45.23,1.2.75.82,1.53.05,1.35-.63,1.2,1.04-.31.33,1.16-6.73,1.9c-1.28.39-2.21.35-2.97,0M121.7,57.32l.84.48,1.06.17,1.04-.17.95-.38.73-.65.41-.8v-1.02l-.55-1.01-.77-.48-1.01-.09-1.03.16-.95.39-.85.63-.42.78.05,1.09.51.91Z"/>
  <path class="cls-2" d="M132.78,71.61c0,1.06-.24,1.88-.79,2.41-.52.59-1.31.86-2.29.86s-1.77-.23-2.35-.78c-.59-.56-.83-1.33-.83-2.42l-.06-3.19h-4.32v-1.38l10.61-.15.02,4.66ZM127.72,71.16c0,.84.14,1.38.48,1.78l1.46.52,1.38-.55c.42-.38.56-1.01.56-1.75v-2.75s-3.97.08-3.97.08l.09,2.68Z"/>
  <polygon class="cls-2" points="129.24 79.31 127.63 79.07 128.84 80.4 128.96 82.11 127.63 81.94 127.63 80.63 127.16 79.66 126.31 79.07 124.97 78.7 121.62 78.18 121.8 76.95 129.4 78.09 129.24 79.31"/>
  <path class="cls-2" d="M119.1,87.85l.49-.69h.92l-.51-1.4.16-1.49.34-.96.67-.68.77-.33.97.13.99.52.48.78.07.89v.97l-.13,1-.08.82.08.59.49.38.66.07.49-.32.34-.48.25-.53.06-1.41-.92-.88.34-1.18,1.1.62.48.89.16,1.16-.19,1.17-.38,1-.59.78-.81.42-1.13-.06-3.75-1.11-.63-.14-.34.23-.04.47-.9-.32.07-.91ZM123.31,87.26l.15-.84.1-.83v-.81l-.25-.63-.61-.42-.58-.07-.42.24-.33.38-.18.56-.19,1.01.24.87.37.59.52.31,1.22.37-.05-.72Z"/>
  <path class="cls-2" d="M121.96,97.26l.9-.94.31-1.16-.31-1.01-.66-.71-.96-.63-.99-.33-.95-.1-.88.35-.74.83-.16,1.55.9,1.2-.5,1.11c-.8-.53-1.31-1.18-1.52-1.89-.22-.75-.13-1.56.35-2.46l.93-1.25,1.25-.67,1.4-.06,1.49.5,1.38.92.83,1.15.29,1.49-.42,1.56-.7.96-.89.73-1.06.32-1.24-.24.64-1.19,1.29-.05Z"/>
  <polygon class="cls-2" points="118.92 104.64 117.96 103.99 118.83 102.76 114.9 100.11 114.58 99.96 114.33 99.96 114.12 100.11 113.83 100.53 113.51 101.02 112.51 100.38 113.08 99.54 113.65 98.91 114.12 98.59 114.71 98.59 115.5 98.99 119.48 101.76 120.26 100.63 121.19 101.27 120.5 102.35 122.33 103.65 121.62 104.67 119.73 103.36 118.92 104.64"/>
  <path class="cls-2" d="M116.64,107.5l-5.95-4.82.84-.99,5.95,4.83-.84.97ZM118.54,107.43l1.2.89-.77,1.02-1.19-.95.77-.95Z"/>
  <path class="cls-2" d="M110.39,112.27l1.21-.6.63-.99.08-1.03-.42-.9-.74-.93-.75-.64-.93-.33h-.97l-.86.59-.67,1.33.47,1.47-.94.85c-.52-.78-.82-1.52-.78-2.32.07-.78.45-1.43,1.19-2.18l1.29-.8,1.32-.29,1.35.43,1.29.97.98,1.33.38,1.38-.15,1.43-.92,1.37-.97.7-1.07.37-1.09-.11-1.11-.6.98-.9,1.23.41Z"/>
  <path class="cls-2" d="M98.81,113.78c.22-.66.7-1.23,1.43-1.76l1.46-.65,1.42.02,1.29.64,1.17,1.21.66,1.45.09,1.49-.47,1.31-.99,1.09-1.61.66-1.54-.3-1.3-.85-.89-1.13,4.7-3.25-.63-.7-.84-.43-.92-.07-1.03.5-.88,1.04.09,1.27-1.03.75c-.33-.84-.37-1.57-.18-2.26M101.88,117.67l.77.27h.81l.83-.33.65-.61.24-.81v-.81l-.31-.79-3.68,2.48.7.61Z"/>
  <path class="cls-2" d="M88.53,127.74l2.03-.12,1.39-.83.76-1.29.2-1.47-.34-1.6-.69-1.56-1.06-1.15-1.35-.58-1.68.2-1.1.63-.68.9-.34,1.13.12,1.21-1.26.46c-.35-1.33-.2-2.47.29-3.41.52-.96,1.38-1.63,2.71-2.03l2.17-.29,1.81.6,1.4,1.38,1.01,1.95c.24.79.31,1.48.36,2.18l-.34,2.04-1.17,1.61-1.84,1.08-1.6.27-1.46-.2-1.28-.76-.96-1.27,1.35-.45,1.53,1.35Z"/>
  <path class="cls-2" d="M75.73,121.31c.59-.45,1.23-.84,2.09-.9l1.6.13,1.28.66.81,1.19.44,1.56-.05,1.61-.61,1.35-1.05.95-1.37.46-1.78-.23-1.17-.88-.75-1.38-.29-1.44,5.73-.68-.26-.97-.54-.71-.82-.48-1.06-.07-1.23.55-.58,1.17-1.24.16c.09-.92.35-1.57.86-2.06M76.61,126.19l.56.62.74.34.85.08.84-.3.61-.53.41-.73.05-.85-4.37.52.3.86Z"/>
  <polygon class="cls-2" points="71.38 128.59 71.38 126.92 71.38 126.92 70.19 128.29 68.52 128.69 68.52 127.41 69.87 127.14 70.73 126.56 71.2 125.57 71.38 124.32 71.5 120.87 72.72 120.88 72.56 128.59 71.38 128.59"/>
  <polygon class="cls-2" points="63.4 127.96 63.49 126.84 65.05 127.04 65.56 122.27 65.56 121.96 65.51 121.68 65.23 121.57 64.72 121.5 64.15 121.44 64.26 120.31 65.23 120.44 66.03 120.59 66.56 120.88 66.89 121.44 66.89 122.34 66.32 127.14 67.6 127.31 67.48 128.44 66.17 128.29 65.87 130.55 64.63 130.4 64.93 128.1 63.4 127.96"/>
  <path class="cls-2" d="M60.73,128.88l-.24,1.48-1.28-.27.31-1.49,1.22.28ZM59.8,127.27l1.55-7.54,1.24.27-1.54,7.59-1.24-.31Z"/>
  <polygon class="cls-2" points="58.08 125.77 57.75 126.8 56.5 126.47 56.17 127.58 55.33 128.78 53.64 128.78 53.24 128.63 52.89 128.44 53.22 127.42 53.54 127.58 53.81 127.7 54.59 127.74 55.06 127.14 55.35 126.1 53.88 125.68 54.16 124.61 55.66 125 57.46 118.78 58.69 119.1 56.85 125.4 58.08 125.77"/>
  <path class="cls-2" d="M51.46,126.22l-.54,1.53-1.18-.48.58-1.45,1.14.41ZM50.74,124.53l2.79-7.21,1.16.48-2.74,7.14-1.21-.41Z"/>
  <path class="cls-2" d="M44.31,119.93l.94.95,1.1.32.99-.22.81-.67.65-.91.31-1.03.1-.93-.34-.91-.8-.7-1.49-.25-1.22.95-1.14-.6c.58-.81,1.17-1.27,1.95-1.47.77-.11,1.56-.04,2.46.43l1.17.95.67,1.22v1.45l-.55,1.48-.94,1.32-1.25.86-1.38.22-1.56-.43-.99-.74-.7-.91-.2-1.01.2-1.24,1.19.56.02,1.3Z"/>
  <path class="cls-2" d="M39.4,108.64l.38.7-.24.92,1.49.04,1.34.66.74.71.37.75.05.84-.42.92-.88.73-.92.17-.84-.19-.85-.43-.96-.45-.71-.38-.6-.16-.46.31-.32.65.09.53.27.49.48.39,1.26.56,1.12-.55,1.06.81-.98.77-.99.14-1.18-.26-.95-.64-.8-.68-.56-.81-.13-.84.45-1.1,2.42-3.15.38-.52-.17-.38-.37-.14.58-.83.87.4ZM38.4,112.77l.77.41.7.41.78.31h.66l.65-.46.21-.46-.02-.5-.27-.46-.41-.35-.94-.59-.8-.05-.67.2-.52.34-.79,1.02.66.16Z"/>
  <polygon class="cls-2" points="29.79 110.18 30.57 109.4 31.6 110.46 35 107.1 35.25 106.84 35.26 106.58 35.17 106.35 34.79 105.95 34.4 105.56 35.17 104.77 35.9 105.44 36.44 106.08 36.65 106.67 36.45 107.23 35.97 107.93 32.46 111.39 33.41 112.31 32.62 113.07 31.73 112.16 30.07 113.71 29.14 112.9 30.8 111.27 29.79 110.18"/>
  <path class="cls-2" d="M27.11,109.21l-1.2,1.05-.8-1,1.18-1,.81.95ZM27.36,107.43l5.88-4.96.81,1.01-5.88,4.84-.81-.89Z"/>
  <path class="cls-2" d="M27.29,103.78l-1.52.1-1.27-.55-1.14-1.15-.66-1.56.09-1.42.72-1.31,1.21-1.03,1.46-.64,1.42-.11,1.35.49,1.12,1.19.59,1.57v1.38s-.73,1.28-.73,1.28l-1.16,1.06-1.49.7ZM28.95,101.16l.48-.96.05-.91-.35-.88-.63-.62-.91-.35-1.02.02-1.17.59-.9.78-.49.93-.07.94.36.88.61.7.86.37,1.1-.16,1.14-.49.93-.83Z"/>
  <path class="cls-2" d="M19.42,94.8l1.14-.49v-.02c-1.03-.13-1.79-.71-2.2-1.77l-.35-1.23.27-.99.64-.71.98-.61,4.65-1.91.49,1.17-4.8,1.99-.91.81.08,1.21.56.84.77.49.82.09.95-.21,4.01-1.68.44,1.19-7.04,2.92-.52-1.09Z"/>
  <path class="cls-1" d="M52.22,70.19c-1.75,2.28-4.15,3.13-6.4,3.13-7.22,0-11.45-5.37-11.45-12.1s4.22-12.32,11.45-12.32c4.77,0,9.24,2.96,9.84,8.23h-4.92c-.57-2.55-2.5-3.87-4.92-3.87-4.58,0-6.36,3.87-6.36,7.96,0,3.87,1.78,7.81,6.36,7.81,3.35,0,5.3-1.74,5.53-5.03h-5.1v-3.83h9.79v12.61h-3.28l-.54-2.58Z"/>
  <polygon class="cls-1" points="60.2 49.48 67.38 49.48 72.84 65.49 72.87 65.49 78.06 49.48 85.32 49.48 85.32 72.77 80.5 72.77 80.5 56.21 80.43 56.21 74.69 72.77 70.76 72.77 65.05 56.42 64.93 56.42 64.93 72.77 60.2 72.77 60.2 49.48"/>
  <path class="cls-1" d="M89.78,49.48h10.5c5.83,0,8.08,3.68,8.08,7.42s-2.25,7.49-8.08,7.49h-5.35v8.37h-5.15v-23.28ZM94.93,60.44h3.94c2.42,0,4.51-.56,4.51-3.53s-2.1-3.46-4.51-3.46h-3.94v6.99Z"/>
  <path class="cls-1" d="M53.74,93.48l-1.31,1.42-2.11-1.88c-1.14.61-2.38.91-3.5.91-4.45,0-7.09-3.6-7.09-7.82s2.64-7.71,7.09-7.71,7.06,3.54,7.06,7.71c0,2.1-.63,4.29-2.09,5.73l1.95,1.63ZM46.96,90.13l1.27-1.43,1.78,1.59c.92-1.13,1.28-2.64,1.28-4.19,0-2.79-1.28-5.55-4.47-5.55s-4.57,2.76-4.57,5.55,1.35,5.72,4.57,5.72l1.64-.35-1.5-1.34Z"/>
  <path class="cls-1" d="M65.41,93.57h-2.36v-1.51h-.05c-.57,1.06-1.88,1.75-3.1,1.75-2.74,0-3.96-1.4-3.96-4.17v-6.81h2.36v6.56c0,1.89.82,2.6,2.05,2.6,2,0,2.64-1.26,2.64-2.9v-6.26h2.42v10.74Z"/>
  <path class="cls-1" d="M76.88,91.17l.55.82.59-.06v1.65l-1.51.23c-.98,0-1.64-.29-1.84-1.28-.91.95-2.43,1.28-3.74,1.28-1.89,0-3.69-.99-3.69-3.07,0-2.74,2.17-3.12,4.2-3.33,1.7-.37,3.19-.16,3.19-1.56,0-1.23-1.26-1.45-2.21-1.45-1.33,0-2.28.56-2.41,1.69h-2.33c.15-2.75,2.5-3.56,4.87-3.56,2.11,0,4.33.84,4.33,3.11v5.52ZM74.49,88.21c-.73.44-1.84.41-2.85.61-1.05.16-2.02.53-2.02,1.82,0,1.03,1.39,1.35,2.23,1.35,1.02,0,2.64-.52,2.64-2.06v-1.72Z"/>
  <rect class="cls-1" x="79.47" y="78.74" width="2.41" height="14.83"/>
  <path class="cls-1" d="M84.46,80.94h2.46v-2.19h-2.46v2.19ZM84.46,93.57h2.46v-10.74h-2.46v10.74Z"/>
  <path class="cls-1" d="M88.31,82.83h1.88v-3.24h2.34v3.24h2.08v1.72h-2.08v5.74c0,.99.05,1.53,1.13,1.53l.95-.13v1.88l-1.49.1c-2.51,0-2.93-.96-2.93-2.75v-6.37h-1.88v-1.72Z"/>
  <path class="cls-1" d="M95.16,82.83h2.68l2.78,7.96h0l2.69-7.96h2.5l-4.16,11.33c-.77,1.96-1.36,3.64-3.81,3.64l-1.65-.12v-2.03l1.17.2c1.05,0,1.35-.63,1.63-1.5l.28-.84-4.11-10.69Z"/>
</svg>