<?xml version="1.0" encoding="UTF-8"?>
<svg id="Layer_1" data-name="Layer 1" xmlns="http://www.w3.org/2000/svg" xmlns:xlink="http://www.w3.org/1999/xlink" viewBox="0 0 300 196">
  <defs>
    <style>
      .cls-1 {
        fill: #86837e;
      }

      .cls-2 {
        fill: none;
      }

      .cls-3 {
        fill: url(#radial-gradient);
      }

      .cls-4 {
        fill: #1ab3be;
      }

      .cls-5 {
        clip-path: url(#clippath);
      }
    </style>
    <clipPath id="clippath">
      <path class="cls-2" d="M191.92,61.66c-2.75,5.2-.77,11.65,4.43,14.4,5.2,2.75,11.65.77,14.4-4.43.03-.06.07-.13.1-.19,2.65-5.25.54-11.66-4.72-14.31-5.18-2.61-11.5-.6-14.21,4.53M259.01,94.48c-3.69,7.13-.9,15.9,6.23,19.59h0c7.13,3.69,15.91.9,19.6-6.23,0,0,0,0,0,0,3.68-7.14.89-15.91-6.24-19.6-7.13-3.69-15.9-.9-19.59,6.23,0,0,0,0,0,0M222.64,32.77c-7.69,2.31-12.06,10.42-9.74,18.11,2.31,7.69,10.42,12.06,18.11,9.74.15-.05.3-.09.45-.14,7.61-2.56,11.71-10.81,9.14-18.42-2.5-7.44-10.45-11.55-17.97-9.29M244.06,112.18c-5.61,1.78-8.71,7.78-6.93,13.38,1.78,5.61,7.78,8.71,13.38,6.93,5.61-1.78,8.71-7.78,6.93-13.38,0,0,0,0,0,0-1.78-5.6-7.76-8.7-13.36-6.93,0,0-.02,0-.02,0M276.22,41.43c-10.11-5.23-22.55-1.27-27.78,8.85-5.23,10.11-1.27,22.55,8.85,27.78,10.11,5.23,22.55,1.27,27.78-8.84,5.23-10.11,1.27-22.55-8.84-27.78h0Z"/>
    </clipPath>
    <radialGradient id="radial-gradient" cx="-2418.66" cy="741.29" fx="-2418.66" fy="741.29" r=".41" gradientTransform="translate(226834.47 77709.75) rotate(1.87) scale(94.69 -94.69)" gradientUnits="userSpaceOnUse">
      <stop offset="0" stop-color="#1ab3be"/>
      <stop offset=".65" stop-color="#1ab3be"/>
      <stop offset=".71" stop-color="#1ab3be"/>
      <stop offset="1" stop-color="#cce310"/>
    </radialGradient>
  </defs>
  <path class="cls-1" d="M12.63,151.58h1.21v4.12l3.6-4.12h1.6l-3.96,4.43,4.28,4.94h-1.76l-3.76-4.59v4.59h-1.21v-9.37ZM23.97,160.08c1.33,0,1.92-1.34,1.92-2.56,0-1.3-.71-2.56-1.92-2.56s-1.93,1.26-1.93,2.56c0,1.22.59,2.56,1.93,2.56M23.97,153.94c1.87,0,3.13,1.51,3.13,3.58,0,1.96-1.28,3.58-3.13,3.58s-3.14-1.62-3.14-3.58c0-2.08,1.26-3.58,3.14-3.58M29.34,154.11h1.06v1.05h.03c.3-.71.95-1.22,1.6-1.22.34,0,.51.04.75.1v1.12c-.21-.09-.44-.12-.63-.12-1.02,0-1.68,1.07-1.68,2.79v3.11h-1.13v-6.84ZM38.75,156.86c0-1.04-.56-1.9-1.53-1.9-1.11,0-1.57,1.02-1.66,1.9h3.19ZM39.48,160.67c-.44.17-.93.44-1.94.44-2.19,0-3.19-1.47-3.19-3.7,0-2.03,1.15-3.47,2.88-3.47,2.05,0,2.72,1.66,2.72,3.87h-4.4c0,1.35.96,2.28,2.03,2.28.75,0,1.62-.43,1.9-.69v1.27ZM45.86,157.68c-.24,0-.48-.03-.72-.03-.62,0-2.14.11-2.14,1.32,0,.72.63,1.11,1.15,1.11,1.12,0,1.71-.78,1.71-1.8v-.6ZM42.48,154.58c.57-.37,1.25-.64,2.03-.64,1.77,0,2.48.97,2.48,2.83v2.83c0,.78.02,1.14.05,1.34h-1.06v-.88h-.02c-.27.41-.87,1.04-1.91,1.04-1.33,0-2.26-.64-2.26-2.13,0-1.72,1.69-2.26,2.86-2.26.45,0,.76,0,1.21.03,0-1.18-.38-1.79-1.52-1.79-.64,0-1.33.27-1.79.69l-.06-1.07ZM53.75,151.58h4.48v1.18h-3.27v2.74h3.13v1.18h-3.13v4.27h-1.21v-9.37ZM63.21,160.08c1.33,0,1.92-1.34,1.92-2.56,0-1.3-.71-2.56-1.92-2.56s-1.93,1.26-1.93,2.56c0,1.22.59,2.56,1.93,2.56M63.21,153.94c1.87,0,3.13,1.51,3.13,3.58,0,1.96-1.28,3.58-3.13,3.58s-3.14-1.62-3.14-3.58c0-2.08,1.26-3.58,3.14-3.58M71.31,160.08c1.33,0,1.92-1.34,1.92-2.56,0-1.3-.71-2.56-1.92-2.56s-1.93,1.26-1.93,2.56c0,1.22.59,2.56,1.93,2.56M71.31,153.94c1.87,0,3.13,1.51,3.13,3.58,0,1.96-1.28,3.58-3.13,3.58s-3.14-1.62-3.14-3.58c0-2.08,1.25-3.58,3.14-3.58M79.18,160.08c1.28,0,1.81-1.41,1.81-2.55,0-1.28-.6-2.58-1.83-2.58s-1.71,1.29-1.69,2.53c-.02,1.08.48,2.59,1.7,2.59M81.04,159.98h-.02c-.3.51-1.01,1.13-2.1,1.13-1.86,0-2.65-1.84-2.65-3.7s.87-3.47,2.66-3.47c1.07,0,1.69.47,2.04,1.1h.03v-4.16h1.13v10.06h-1.08v-.97ZM91.8,155.23c.51-.27,1.27-.85,1.27-1.64,0-.86-.42-1.15-1-1.15s-1.02.4-1.02,1.21c0,.63.39,1.14.75,1.58M91.84,160.08c.78,0,1.29-.56,1.56-.9l-2.03-2.64c-.64.48-1.19.92-1.19,1.85,0,1.04.79,1.69,1.66,1.69M95.72,155.89c-.11,1.52-.48,2.39-.96,3.21l1.47,1.85h-1.51l-.68-.91c-.61.76-1.34,1.07-2.42,1.07-1.66,0-2.72-1.04-2.72-2.61,0-1.42.75-2.23,1.88-2.74-.44-.6-.87-1.23-.87-2.13,0-1.5.99-2.2,2.2-2.2,1.1,0,2.09.65,2.09,2.12,0,1.19-.96,2-1.85,2.44l1.72,2.17c.33-.58.46-1.19.52-2.27h1.13ZM103.63,159.76h1.27c2.08,0,3.23-1.12,3.23-3.53,0-2.19-1.34-3.48-3.08-3.48h-1.41v7.01ZM102.42,151.58h2.49c2.5,0,4.49,1.72,4.49,4.6,0,3.14-1.71,4.76-4.49,4.76h-2.49v-9.37ZM111.83,154.11h1.06v1.05h.02c.3-.71.95-1.22,1.61-1.22.34,0,.51.04.75.1v1.12c-.2-.09-.43-.12-.63-.12-1.01,0-1.68,1.07-1.68,2.79v3.11h-1.13v-6.84ZM122.7,160.94h-1.1v-1.09h-.02c-.34.77-1.16,1.25-2.02,1.25-1.59,0-2.31-1.1-2.31-2.93v-4.07h1.13v3.54c0,1.6.32,2.37,1.31,2.44,1.29,0,1.87-1.15,1.87-2.82v-3.16h1.14v6.84ZM129.66,157.6c0-1.42-.59-2.64-1.8-2.64s-1.72,1.38-1.72,2.55c0,1.29.65,2.42,1.72,2.42s1.8-1.05,1.8-2.32M130.8,160.65c0,2.08-.97,3.27-3.17,3.27-.65,0-1.22-.09-2.21-.47l.12-1.17c.87.44,1.39.62,2.22.62,1.2,0,1.91-.9,1.91-2.35v-.67h-.03c-.48.71-1.28,1.06-2.06,1.06-1.76,0-2.63-1.6-2.63-3.37s.9-3.64,2.75-3.64c1.09,0,1.69.45,2.03,1.18h.02v-1.02h1.05v6.54ZM140.9,152.84l-1.68,4.64h3.36l-1.68-4.64ZM140.31,151.58h1.27l3.56,9.37h-1.32l-.85-2.36h-4.13l-.86,2.36h-1.27l3.6-9.37ZM149.47,160.08c1.29,0,1.81-1.41,1.81-2.55,0-1.28-.59-2.58-1.82-2.58s-1.72,1.29-1.69,2.53c-.03,1.08.48,2.59,1.7,2.59M151.34,159.98h-.02c-.3.51-1,1.13-2.1,1.13-1.86,0-2.64-1.84-2.64-3.7s.87-3.47,2.66-3.47c1.07,0,1.69.47,2.04,1.1h.02v-4.16h1.13v10.06h-1.09v-.97ZM155.06,154.11h1.06v.99h.03c.43-.79,1.05-1.15,1.95-1.15.71,0,1.43.4,1.75,1.33.42-.98,1.35-1.33,1.9-1.33,1.57,0,2.14,1.13,2.14,2.62v4.38h-1.14v-4.08c0-.84-.18-1.9-1.1-1.9-1.16,0-1.62,1.26-1.62,2.53v3.45h-1.13v-4.08c0-.84-.18-1.9-1.1-1.9-1.16,0-1.62,1.26-1.62,2.53v3.45h-1.13v-6.84ZM166.68,154.11h1.13v6.84h-1.13v-6.84ZM167.89,152.57h-1.28v-1.42h1.28v1.42ZM170.62,154.11h1.1v1.08h.02c.34-.77,1.16-1.25,2.02-1.25,1.6,0,2.31,1.1,2.31,2.94v4.07h-1.13v-3.54c0-1.6-.31-2.38-1.3-2.44-1.29,0-1.87,1.15-1.87,2.82v3.17h-1.13v-6.84ZM178.86,154.11h1.14v6.84h-1.14v-6.84ZM180.07,152.57h-1.28v-1.42h1.28v1.42ZM182.34,159.6c.45.32,1.09.48,1.41.48.52,0,1.16-.24,1.16-.98,0-1.25-2.67-1.14-2.67-3.06,0-1.42.96-2.11,2.18-2.11.53,0,.96.12,1.41.27l-.09,1.1c-.26-.17-.93-.35-1.2-.35-.58,0-1.09.27-1.09.83,0,1.39,2.67.99,2.67,3.18,0,1.46-1.05,2.13-2.15,2.13-.58,0-1.17-.07-1.69-.37l.06-1.13ZM191.5,155.12h-1.63v3.74c0,.79.44,1.22.95,1.22.35,0,.61-.12.77-.24v1.07c-.25.08-.61.19-.97.19-1.17,0-1.89-.62-1.89-1.98v-4h-1.39v-1.02h1.39v-1.59l1.13-.4v1.99h1.63v1.02ZM193.64,154.11h1.06v1.05h.02c.3-.71.95-1.22,1.61-1.22.34,0,.51.04.75.1v1.12c-.21-.09-.44-.12-.63-.12-1.02,0-1.68,1.07-1.68,2.79v3.11h-1.13v-6.84ZM202.72,157.68c-.24,0-.48-.03-.72-.03-.61,0-2.13.11-2.13,1.32,0,.72.62,1.11,1.14,1.11,1.12,0,1.72-.78,1.72-1.8v-.6ZM199.36,154.58c.57-.37,1.24-.64,2.03-.64,1.76,0,2.47.97,2.47,2.83v2.83c0,.78.02,1.14.05,1.34h-1.06v-.88h-.03c-.27.41-.87,1.04-1.91,1.04-1.33,0-2.26-.64-2.26-2.13,0-1.72,1.69-2.26,2.86-2.26.45,0,.76,0,1.21.03,0-1.18-.39-1.79-1.52-1.79-.64,0-1.33.27-1.79.69l-.06-1.07ZM209.77,155.12h-1.63v3.74c0,.79.44,1.22.95,1.22.35,0,.61-.12.77-.24v1.07c-.25.08-.61.19-.96.19-1.17,0-1.89-.62-1.89-1.98v-4h-1.39v-1.02h1.39v-1.59l1.13-.4v1.99h1.63v1.02ZM212.07,154.11h1.14v6.84h-1.14v-6.84ZM213.28,152.57h-1.28v-1.42h1.28v1.42ZM218.74,160.08c1.33,0,1.92-1.34,1.92-2.56,0-1.3-.71-2.56-1.92-2.56s-1.93,1.26-1.93,2.56c0,1.22.59,2.56,1.93,2.56M218.74,153.94c1.87,0,3.13,1.51,3.13,3.58,0,1.96-1.28,3.58-3.13,3.58s-3.14-1.62-3.14-3.58c0-2.08,1.26-3.58,3.14-3.58M224.11,154.11h1.1v1.08h.03c.34-.77,1.16-1.25,2.02-1.25,1.59,0,2.31,1.1,2.31,2.94v4.07h-1.14v-3.54c0-1.6-.31-2.38-1.31-2.44-1.29,0-1.87,1.15-1.87,2.82v3.17h-1.13v-6.84Z"/>
  <path class="cls-4" d="M285.06,69.21c-5.22,10.11-17.67,14.07-27.78,8.84-10.12-5.23-14.08-17.67-8.85-27.78,5.23-10.12,17.67-14.08,27.79-8.84,10.12,5.23,14.08,17.67,8.84,27.79M257.44,119.1c1.79,5.6-1.31,11.6-6.91,13.38-5.61,1.78-11.6-1.31-13.39-6.92-1.78-5.61,1.31-11.6,6.92-13.38,5.61-1.79,11.6,1.31,13.38,6.92M240.91,42.21c2.43,7.65-1.8,15.83-9.45,18.27-7.65,2.43-15.83-1.8-18.27-9.45s1.79-15.83,9.44-18.27c7.65-2.44,15.83,1.79,18.27,9.44M278.6,88.24c7.13,3.69,9.92,12.46,6.24,19.6-3.69,7.13-12.46,9.93-19.6,6.23-7.13-3.69-9.93-12.46-6.24-19.6,3.69-7.14,12.46-9.93,19.6-6.24M206.27,57.09c5.23,2.7,7.27,9.13,4.57,14.36-2.7,5.23-9.13,7.27-14.36,4.57-5.23-2.7-7.27-9.13-4.57-14.36s9.13-7.27,14.35-4.57"/>
  <g class="cls-5">
    <path class="cls-3" d="M275.42,85.91c-.71,21.66-18.84,38.65-40.49,37.94-21.66-.7-38.65-18.83-37.94-40.49.7-21.66,18.84-38.65,40.49-37.94,21.66.7,38.64,18.83,37.94,40.49"/>
  </g>
  <path class="cls-4" d="M112.14,91.94v-7.97h-41.5v52.11h11.99v-21.64h25.15v-7.97h-25.15v-14.54h29.51ZM147.56,128.11s-.06,0-.09,0h0s-14.84,0-14.84,0v-36.17h14.84s.06,0,.09,0c5.18,0,8.66,3.45,8.66,8.66,0,.02,0,.03,0,.05h0v18.75h0s0,.03,0,.05c0,5.21-3.48,8.66-8.66,8.66M168.21,100.29h-.03c-.34-9.39-7.09-16.07-16.53-16.3v-.02h-30.99v52.11h31.35v-.04c9.21-.39,15.78-6.97,16.16-16.17h.04v-19.58ZM210.04,89.83c-2.13-5.27-7.03-5.86-9.64-5.86s-7.51.59-9.64,5.86l-19.54,46.25h12.37l16.81-42.24,16.82,42.24h12.37l-19.55-46.25ZM12.78,136.08h11v-52.11h-11v52.11ZM36.68,108.48l24.37-24.51h-12.62l-21.16,21.46c-1.51,1.45-3.73,5.59.17,9.35h0l20.98,21.3h14.78l-26.52-27.6Z"/>
</svg>