<?xml version="1.0" encoding="UTF-8"?>
<svg id="Layer_1" data-name="Layer 1" xmlns="http://www.w3.org/2000/svg" viewBox="0 0 325 136">
  <defs>
    <style>
      .cls-1 {
        fill: #c60f12;
      }

      .cls-2 {
        fill: #ce2a33;
      }

      .cls-3 {
        fill: #c7161a;
      }

      .cls-4 {
        fill: #1f2261;
      }
    </style>
  </defs>
  <g>
    <path class="cls-4" d="M262.62,76.36c-.41.43-.86.88-1.29,1.29l1.29-1.29Z"/>
    <path class="cls-2" d="M239.5,120.6c-.79.82-1.7,1-2.57,1.42-2.07,1.01-3.61,1.54-5.83,2.15-8.85,2.48-18.25,3.36-27.41,4.1-.79.06-1.58.16-2.37.22-7.46.56-14.97.86-22.44,1.08-12.58.35-25.21.28-37.78-.22-2.8-.12-5.61-.28-8.41-.43-3.39-.19-6.77-.38-10.14-.65-4.95-.41-10.03-.85-14.94-1.57-.34-.04-.79-.12-1.03-.38-.45-.06-.86-.15-1.29-.22-3.99-.28-8.43-1.13-12.26-2.32-1.95-.6-5.35-1.74-6.3-3.5-1.25-2.3,1-3.43,2.8-4.32,5.25-2.58,11.86-3.18,17.58-4.1,4.5,1.42,9.16,2.43,13.68,3.83.34.1.69.18.91.5.07,0,.15-.01.22,0,2.27.5,4.59.89,6.86,1.44.65.16,1.51.22,1.98.72h.22l.6.15.09.03h0l.09.03s.04,0,.07.01h.22c2.13.37,4.25.66,6.36,1.08.37.07.75.03.98.43h.22c1.64.23,3.4.65,4.97.86,1.76.25,3.77.41,5.61.65.91.12,1.85.29,2.76.37.23.01.73.26.69-.15-14.7-3.15-29.47-7.15-43.38-12.86-2.49-1.03-4.95-2.11-7.34-3.34-1.98-1.01-4.18-2.18-6.1-3.3l-1.89-.59c-14.31-7.52-30.7-18.4-38.42-33.03-2.14-4.06-3.64-8.34-4.1-12.94-.43-4.1-.07-8.09.86-12.09.12-.53.84-3.66,1.19-3.66.56.48,1.11.97,1.61,1.51.1.1,0,.72.86.65.06.07.15.15.22.22l3.02,1.85c6.48,3.34,14.23,3.47,21.37,2.9,2.18-.18,4.32-.59,6.48-.86.79-.1,1.58-.32,2.37-.43h.22c3.55-.7,7.1-1.44,10.63-2.21,2.15-.48,4.24-1.3,6.42-1.67.38-.07.88.04,1.29,0-1.44,1.08-3.12,1.85-4.75,2.59-.06.03-.16-.03-.22,0h0l-.21.22c-.06.03-.15-.03-.22,0-.38.43-1.13.81-1.64,1.06-9.09,4.37-21.54,8.56-31.71,7.8-.29-.01-.48-.12-.75-.22-.22,3.9.86,7.68,1.73,11.43,8.93,21.46,29.33,34.16,49.61,43.8h-.07s-.04,0-.06.03c-.04.03-.06.06-.06.09.01.23.32,0,.22-.1.16.07.43.12.65.22,5.39,2.54,11.01,4.65,16.4,7.12.06.03.15-.03.22,0,5.37,1.89,10.82,4.1,16.18,5.83,2.27.73,5.01,1.72,7.34,1.51,6.86-2.14,13.82-3.91,20.63-6.25,4.32-1.5,8.65-3.15,12.84-4.97,1.55-.67,2.99-1.7,4.65-2.17,3.84.37,7.71.54,11.55.88,7.65.66,19.72,1.54,26.33,5.17.12.07.25.1.43.22,1.74,1.07,3.5,2.33,1.5,4.4l-.03-.03Z"/>
    <path class="cls-2" d="M157.07,11.28c-4.87-1.28-9.88-2.07-14.89-2.59-.97-.1-2.52-.43-3.34-.43h-3.46c-1.67,0-3.53-.22-5.29-.22h-.65c-1.63.01-3.14.12-4.75.22-2.45.15-4.91.34-7.34.65-2.83.37-5.63.89-8.41,1.51-5.13,1.13-9.97,2.74-14.89,4.53-4.59,2.18-8.88,4.6-13.16,7.34-.18.12-.34.15-.43.22-.07.04-.13.16-.22.22-.22.15-.32.65-.88.54-1.57-1-3.34-1.66-5.16-2.05-1.88-.41-3.91-.63-5.83-.65l1.29-1.07c1.1-1.07,2.57-1.8,3.88-2.59,5.59-3.34,11.49-5.95,17.75-7.83.89-.26,1.82-.6,2.76-.59,0-.1,0-.18.12-.22,2.89-.78,5.81-1.42,8.74-1.95,2.86-.51,6.66-1.3,9.5-1.29h.44l5.72-.44c1.39.07,2.83-.07,4.22,0,.32.01.69.19,1.08.22h.65c4.47-.04,7.54.41,11.87,1.08.81.13,1.89-.26,2.59.44h.22c.21,0,.69-.35,1.08.22h.22l.81.21h.28l.69.18h0c.06.01.12.03.16.04h.22c.51.12,1.11-.04,1.73.22.09.04.16.19.22.22,1.82.13,3.8.72,5.56,1.23,2.04.6,4.53,1.38,6.48,2.15.32.13.59-.13.47.48h-.03Z"/>
    <path class="cls-1" d="M102.89,105.62c-2.83-1.19-5.28-2.46-7.99-3.88l1.89.59c1.92,1.11,4.12,2.29,6.1,3.3Z"/>
    <path class="cls-2" d="M78.51,37.41c-.07.07-.15.15-.22.22-.18.65-1.14,1.47-1.73,1.73-.07.07-.15.15-.22.22-.94.94-1.96,1.39-3.24,1.73-.07.01-.15-.01-.22,0-3.94,1.74-9.21,1.13-12.52-1.73-.47-.41-.67-.6-1.08-1.08-2.1-2.51-2.21-4.66-.86-7.55.07-.16.13-.28.22-.43.16-.28.12-.73.65-.86.03-.06-.03-.16,0-.22l.22-.22c.07-.07.15-.15.22-.22.12-.62.67-1.19,1.29-1.29.07-.07.15-.15.22-.22,1.44-1.63,5.13-2.84,7.24-3.02,2.05-.16,4.88.07,6.58,1.29.07.01.15-.03.22,0,1.1.35,1.32.6,2.15,1.29.53.44.86.75,1.29,1.29,1.89,2.33,2.26,6.85-.22,9.07h.01Z"/>
    <path class="cls-1" d="M141.25,6.74l-.81-.21c.37.04.66.16.81.21Z"/>
    <path class="cls-1" d="M142.22,6.93l-.69-.18c.31.04.51.12.69.18Z"/>
    <path class="cls-1" d="M131.56,118.5l-.6-.15c.22.04.43.1.6.15Z"/>
    <path class="cls-3" d="M56.91,42.16c-.86.07-.76-.54-.86-.65.32-.07.63.38.86.65Z"/>
    <path class="cls-4" d="M262.62,76.36c-.41.43-.86.88-1.29,1.29l1.29-1.29Z"/>
    <path class="cls-3" d="M103.97,44.53s-.07.15-.21.21l.21-.21Z"/>
    <path class="cls-4" d="M118.22,40.95c-.15-.01-.19-.16-.21-.21l.21.21Z"/>
    <path class="cls-4" d="M154.12,51.03c-.07.09-.19.21-.29.29l.29-.29Z"/>
    <path class="cls-3" d="M59.51,29.21l-.22.22c.04-.07.15-.15.22-.22Z"/>
    <path class="cls-4" d="M152.14,53l-.69.69c.23-.25.47-.47.69-.69Z"/>
    <path class="cls-4" d="M268.23,42.89s-.19-.07-.21-.21l.21.21Z"/>
    <path class="cls-3" d="M120.6,108.74s.03-.06.06-.09c.01,0,.03-.01.06-.03h.07s.02,0,0,0c-.03,0,.03,0,.03,0,.1.1-.21.34-.22.1h0Z"/>
    <path class="cls-4" d="M275.14,43.55v-.22c0-.28.44-.7-.22-1.08v-.22c0-.28.06-.35,0-.86v-.22c-.09-.53-.29-1.01-.43-1.51-1.61-5.88-4.69-10.66-8.94-15.11-4.66-4.88-10.29-8.74-16.36-11.68-5.44-2.65-11.04-4.75-17.01-5.79h-.22c-.22-.38-.6-.35-.97-.44-1.52-.35-2.96-.48-4.44-.65h-.22c-.59-.44-1.57-.53-2.29-.62-2.3-.31-4.52-.38-6.77-.45h-.22c-2.2-.72-4.71-.4-7.02-.43-8.39-.07-16.49.69-24.7,2.58-4.25.98-8.56,2.13-12.52,3.88-.15,0-.29-.01-.43,0-.78.12-4.15,1.61-4.97,2.05-.31.16-.53-.01-.43.54l6.04-2.15c.26.01.62.03.86,0,.41-.06,1.07-.34,1.51-.44,1.11-.23,2.21-.65,3.24-.86,3.36-.72,6.96-1.47,10.36-1.95,1.64-.23,3.59-.25,5.29-.44.22-.03.48-.06.75-.1,1.06-.18,2.11-.29,3.17-.32h.07c.91-.03,2.18-.22,2.92-.22h11.65c1.23,0,3.28.29,4.65.43,5.94.6,11.73,1.95,17.49,3.46,1.03.4,2.18.86,3.24,1.29,2.93,1.2,5.78,2.54,8.63,3.88,5.17,3.21,10.1,6.58,14.15,11.23,1.25,1.42,2.17,3.11,3.34,4.53,1.52,3.05,2.77,5.92,3.46,9.28.09.43.15.86.22,1.29.01.13-.01.29,0,.43l.21.21h0c.03.28-.03.59,0,.86v.43c.12,1.67.13,2.86,0,4.53-.4,5.13-2.23,10.64-4.75,15.11-7.07,12.55-21.1,21.1-33.67,27.19-4,1.13-8,3.61-12.3,2.8l-.06-.03c-1.69-1.77-.4-4.94.21-7.05,1.08-3.75,2.55-7.52,3.72-11.27,3.46-11.08,8.93-27.15,6.26-38.64-1.19-5.09-3.99-8.59-9.06-10.14-.5-.15-1-.37-1.51-.44h-.22c-.41-.04-.86,0-1.29,0h-.22c-1.48-.45-3.27-.25-4.75,0-3.18.53-5.54,1.92-7.99,3.88-9.03,7.2-15.79,22.88-21.77,32.96-2.07,3.46-6.46,11.26-9.53,13.46-1.23.43-1.89.28-2.42-.92-.94-2.18.13-11.01.56-13.79.06-.38.21-.69-.09-1.04.07-.65.15-1.29.22-1.94.7-6.36,1.28-15.7-2.59-21.15-3.03-4.27-7.58-4.02-11.87-1.51-5.88,3.45-11.3,10.73-16.29,15.55-2.7,2.59-5.64,4.95-8.53,7.33-1.23.38-2.3,1.73-3.66,1.08-.07-.07-.19-.18-.22-.22-.26-2.08.84-3.88,1.29-5.83.07-.15.15-.29.22-.43.56-1.08,1.3-2.2,1.51-3.46.04-.07.16-.13.22-.22,1.16-2.17,3.37-6.61,3.46-8.85v-.22c.79-.95.26-2.29-.37-3.17-.13-.19-.29-.35-.47-.5-3.68-2.93-11.39.21-15.51,1.23l-9.12,3.08c.38-.07.88.04,1.29,0l3.46-.65c1.8.07,3.71-.38,5.61-.22h0l.21.22c.21.03.45-.03.65,0,1.19.21,2.21.37,3.2,1.22l.04.07c1.13,4.81-2.29,8.97-3.46,13.38-.21.43-.45.85-.65,1.29-2.04,4.43-4.47,16.46.43,19.42,3.43,2.07,7.27-.16,10.36-1.94,6.16-3.55,10.91-8.44,15.76-13.38.1-.1.22-.22.32-.32.07-.07.16-.16.25-.25l.72-.73c.15-.15.29-.28.44-.43.13-.15.29-.28.43-.43.07-.07.15-.15.22-.22.07-.07.15-.15.22-.22,1.47-1.54,2.92-3.25,4.32-4.75.23-.25.47-.47.69-.69.13-.13.26-.26.4-.4.07-.07.15-.15.22-.22.13-.13.31-.32.44-.43.22-.21.51-.54.65-.65l.29-.29.15-.15s.62-.41.65-.44c.69-.34,1.42-.56,2.15-.22.07.1.16.15.22.22.48,1.1.78,2.36.86,3.55.7,9.38-1.03,18.88,0,28.4.04.4.16.72.22,1.08.34,2.24.47,3.62,1.73,5.61.44.7.47.73,1.08,1.29,3.15,2.9,8.03,1.88,11.43,0,15.41-8.49,22.56-35.18,34.74-47.92.6-.22,1.06-.76,1.69-1.01,1.41-.59,2.71-.78,4.03.23l.12.13c1.1,2.36.54,4.91.15,7.39-1.06,6.67-3.56,13.57-5.7,19.98-1.89,5.61-4.21,11.14-5.67,16.89-.06.13-.13.23-.22.44-.13.32-.18.73-.22,1.08-.03.06-.19.13-.22.22-.19.51-.29,1.38-.43,1.95,0,.03-.15.1-.22.43-.03.13.01.29,0,.44v.22s-.18.1,0,.22v.44c-.35.15-.16.6-.22.86,0,0-.21.06-.22.22-.09.98-.12,3.68.22,4.53.04.09.19.16.22.22.09.26.1.6.22.86,1.91,4.47,9.7,4,13.6,3.46,6.39-.89,12.67-3.09,18.56-5.61,9.94-4.25,19.25-9.91,27.19-17.27.29-.26.57-.59.86-.86.07-.07.15-.15.22-.22l1.29-1.29c.37-.37.72-.7,1.08-1.08.13-.15.29-.28.43-.43.92-.98,1.73-1.99,2.59-3.02.16-.19.54-.22.44-.65.07-.07.15-.15.22-.22,1.63-1.66,3.71-5.35,4.72-7.48.94-1.96,1.85-4.21,2.18-6.33.01-.06.19-.13.22-.22.38-1.08.65-2.65.84-3.81.48-3.15.69-6.49-.18-9.57l-.06.06ZM173.47,10.96s-.04-.15.22,0h-.22Z"/>
    <path class="cls-4" d="M173.69,10.96h-.22s-.04-.15.22,0Z"/>
  </g>
  <path class="cls-4" d="M173.56,11.17s-.16.09-.25.12c-.23.07-.47.15-.7.22-.53.16-1.04.34-1.57.5-.66.22-1.33.43-1.99.65-.45.15-.91.29-1.39.35-.06-.04-.04-.13,0-.19s.1-.09.16-.12c.73-.37,1.55-.57,2.27-.95.13-.07.25-.13.38-.19s.25-.09.38-.13c.54-.16,1.07-.38,1.61-.5.28-.06.57-.1.85-.12.22-.01.47.18.23.37h.01Z"/>
  <path class="cls-4" d="M167.89,13.09c.23-.09.48-.16.72-.25.07-.03.15-.04.21-.09.06-.03.1-.06.16-.09.04-.01.09-.03.15-.04.15-.03.32-.06.43-.18h-.4s-.09.01-.13.03c-.34.09-.69.19-1.01.31-.06.01-.12.04-.18.07-.12.06-.22.13-.31.21-.03.01-.06.06-.03.07.03.01.1,0,.13,0,.09,0,.19-.04.28-.07v.03Z"/>
  <path class="cls-4" d="M173.4,11.27s.07-.03.12-.04.07-.03.1-.07c-.01,0-.04,0-.15.01-.04.03-.09.04-.13.07,0,0-.03,0-.04.01,0,0-.03,0-.03.03h.06s.04,0,.06-.01h.01Z"/>
  <path class="cls-4" d="M168.8,12.78s.12-.04.18-.06h.04c.09-.04.18-.07.29-.15-.09,0-.16,0-.25.01-.03,0-.06.03-.1.03l-.06.03s-.06.03-.09.04c-.03.01-.06.04-.09.1h.07Z"/>
  <path class="cls-4" d="M170.12,12.32s.03,0,.04-.01c.01,0,.03-.03.03-.04h-.25c-.07,0-.15.04-.22.07-.06.03-.1.06-.16.07-.04.01-.07.03-.15.06,0,0,0,.03.03.07.04,0,.07-.01.1-.03.16-.07.35-.12.53-.18.04-.01.1-.03.19-.07.1-.03.22-.06.32-.1.01,0,.03,0,.09-.04.03,0,.04,0,.07-.01s.04,0,.09-.06h-.16s-.04,0-.06.01c-.12.04-.23.06-.34.1-.01,0-.04.01-.06.03-.03.01-.07.04-.07.1"/>
</svg>