<?xml version="1.0" encoding="UTF-8"?>
<svg id="Layer_1" data-name="Layer 1" xmlns="http://www.w3.org/2000/svg" viewBox="0 0 300 196">
  <defs>
    <style>
      .cls-1 {
        fill: #253c92;
      }
    </style>
  </defs>
  <path class="cls-1" d="M14.28,42.84h111.44c7.7.48,15.08,1.61,22.23,4.58,16.06,6.68,27.35,21.5,31.24,38.27l26.82-42.85h13.95l-.2,1.05c-15.83,25.43-29.36,53.21-45.8,78.18-11.47,17.42-26.03,29.99-47.89,31.11h-42.4v-65.71h12.88v51.95l1.23.55c23.76.41,49.85,2.68,63.8-20.62,16.56-27.67-2.16-60.78-33.38-63.66H26.8s0,96.93,0,96.93l-.54.54h-11.98V42.84Z"/>
  <path class="cls-1" d="M101.56,134.6v-47.13h13.24v34.28h14.85c2.84,0,8.85-3.49,11.08-5.37,13.69-11.51,11.7-32.18-4.44-40.17-1.47-.73-6.66-2.66-8.06-2.66H43.97v13.92h35.06v13.21H31.09v-40.35h93.18c29.35-.69,48.71,30.81,33.6,56.39-4.69,7.94-17.23,17.88-26.8,17.88h-29.51Z"/>
  <polygon class="cls-1" points="161.3 153.16 219.97 56.05 268.61 134.6 201.72 134.6 201.72 121.74 245.01 121.74 219.97 81.4 179.01 153.16 161.3 153.16"/>
  <polygon class="cls-1" points="234.09 42.84 285.72 125.94 285.51 127.36 278.09 139.6 220.32 42.84 234.09 42.84"/>
  <polygon class="cls-1" points="79.03 106.39 79.03 119.24 43.97 119.24 43.97 152.63 43.43 153.16 31.09 153.16 31.09 106.39 79.03 106.39"/>
  <polygon class="cls-1" points="277.56 139.95 270.04 153.16 201.72 153.16 201.72 139.95 277.56 139.95"/>
</svg>